<svg width="48" height="48" viewBox="0 0 48 48" fill="none" xmlns="http://www.w3.org/2000/svg">
<path fill-rule="evenodd" clip-rule="evenodd" d="M28.4244 15.6735H25.5789V13.7019H28.4244C28.4713 13.7019 28.5117 13.666 28.5214 13.6204L29.6762 7.99494C29.7729 7.52791 30.0273 7.10837 30.3967 6.8067C30.7662 6.50503 31.2281 6.3396 31.705 6.33816H33.6498C33.5563 6.65863 33.509 6.99078 33.5092 7.3246C33.5092 7.6672 33.5586 7.99785 33.6498 8.31104H31.7053C31.6826 8.31164 31.6607 8.31982 31.6431 8.33429C31.6256 8.34875 31.6133 8.36866 31.6084 8.39087L30.4535 14.0167C30.3568 14.4837 30.1023 14.9033 29.7329 15.205C29.3634 15.5067 28.9014 15.6721 28.4244 15.6735ZM30.8456 18.5264L32.1064 14.72C32.2223 14.3724 32.4449 14.0703 32.7425 13.8565C33.0401 13.6428 33.3975 13.5284 33.7639 13.5296H37.3392C37.2479 13.8468 37.2016 14.1753 37.2018 14.5054C37.2018 14.8515 37.2526 15.186 37.346 15.5025H33.9264L32.6646 19.308C32.549 19.6555 32.3266 19.9578 32.0292 20.1716C31.7318 20.3855 31.3745 20.5 31.0082 20.499H25.5789V18.5264H30.8456ZM33.6498 41.6728H31.705C31.2281 41.6714 30.7662 41.506 30.3967 41.2043C30.0273 40.9026 29.7729 40.4831 29.6762 40.0161L28.5214 34.3912C28.5168 34.3687 28.5047 34.3485 28.4871 34.3338C28.4695 34.3191 28.4474 34.3108 28.4244 34.3104H25.5789V32.3372H28.4244C28.9015 32.3386 29.3636 32.5041 29.7332 32.8058C30.1028 33.1075 30.3573 33.5272 30.4542 33.9943L31.608 39.6188C31.6177 39.6641 31.6588 39.6996 31.705 39.6996H33.6498C33.5563 40.0201 33.509 40.3522 33.5092 40.6861C33.5092 41.0287 33.5583 41.3596 33.6498 41.6728ZM30.8456 29.4855H25.5789V27.5127H31.0082C31.3743 27.5116 31.7314 27.626 32.0287 27.8395C32.3261 28.053 32.5486 28.3548 32.6646 28.7021L33.9258 32.5085H37.3463C37.2504 32.8327 37.2017 33.1691 37.2018 33.5072C37.2018 33.845 37.25 34.1718 37.3392 34.4811H33.7642C33.398 34.4823 33.0408 34.368 32.7433 34.1545C32.4459 33.9409 32.2233 33.639 32.1074 33.2917L30.8456 29.4855ZM40.9673 24.9919H25.5795V23.0191H40.9676C40.8741 23.3395 40.8268 23.6717 40.827 24.0055C40.827 24.3478 40.8761 24.6787 40.9673 24.9919ZM5.89373 9.16334L8.83268 13.1091C8.97554 13.3001 8.98459 13.56 8.8566 13.762C7.67455 15.6202 6.82589 17.6705 6.34881 19.8206C6.3236 19.9343 6.26437 20.0378 6.17898 20.1171C6.0936 20.1964 5.98611 20.2479 5.87078 20.2647L1 20.9815V27.0181L5.87078 27.7341C6.10673 27.7693 6.29678 27.9461 6.34881 28.1791C6.8262 30.3291 7.67496 32.3794 8.85693 34.2377C8.91957 34.3361 8.9508 34.4513 8.94647 34.5679C8.94214 34.6845 8.90246 34.7971 8.83268 34.8906L5.89373 38.8363L10.1633 43.1053L14.1094 40.1673C14.2031 40.0979 14.3156 40.0584 14.4322 40.0542C14.5487 40.0499 14.6638 40.081 14.7623 40.1434C16.6208 41.325 18.671 42.1736 20.8209 42.6512C21.0536 42.7029 21.2307 42.8933 21.2647 43.1292L21.9819 48H24.4295V39.5254C16.1321 39.2216 9.47555 32.376 9.47555 24.0055C9.47555 15.635 16.1321 8.78939 24.4295 8.48557V0H21.9822L21.2653 4.87078C21.2485 4.98611 21.197 5.0936 21.1177 5.17898C21.0384 5.26437 20.935 5.3236 20.8212 5.34881C18.6712 5.82594 16.6209 6.6746 14.7626 7.8566C14.6642 7.91925 14.5491 7.95051 14.4325 7.94624C14.3159 7.94197 14.2033 7.90237 14.1097 7.83269L10.164 4.89373L5.89373 9.16334Z" fill="url(#paint0_linear_924_12567)"/>
<g filter="url(#filter0_b_924_12567)">
<path fill-rule="evenodd" clip-rule="evenodd" d="M24.4295 14.0681C19.2081 14.3671 15.0513 18.7097 15.0513 24.0055C15.0513 29.301 19.2078 33.6437 24.4295 33.9426V14.0681ZM37.0338 4.95032C35.7235 4.95032 34.6582 6.0153 34.6582 7.32462C34.6582 8.63363 35.7232 9.6986 37.0338 9.6986C38.3428 9.6986 39.4078 8.63363 39.4078 7.32462C39.4078 6.01562 38.3428 4.95032 37.0338 4.95032ZM38.3512 14.5054C38.3512 15.8144 39.4178 16.8794 40.7268 16.8794C42.0358 16.8794 43.1008 15.8144 43.1008 14.5054C43.1008 13.1948 42.0358 12.1298 40.7268 12.1298C39.4178 12.1298 38.3512 13.1948 38.3512 14.5054ZM44.35 21.6312C43.041 21.6312 41.976 22.6962 41.976 24.0055C41.976 25.3145 43.0407 26.3795 44.35 26.3795C45.659 26.3795 46.7256 25.3145 46.7256 24.0055C46.7256 22.6965 45.659 21.6315 44.35 21.6312ZM37.0338 38.3121C35.7235 38.3121 34.6582 39.3771 34.6582 40.6861C34.6582 41.9951 35.7232 43.0617 37.0338 43.0617C38.3428 43.0617 39.4078 41.9951 39.4078 40.6861C39.4078 39.3771 38.3428 38.3121 37.0338 38.3121ZM38.3512 33.5069C38.3512 34.8159 39.4178 35.8809 40.7268 35.8809C42.0358 35.8809 43.1008 34.8159 43.1008 33.5069C43.1008 32.1979 42.0358 31.1313 40.7268 31.1313C39.4178 31.1313 38.3512 32.1979 38.3512 33.5069Z" fill="url(#paint1_linear_924_12567)" fill-opacity="0.6"/>
</g>
<defs>
<filter id="filter0_b_924_12567" x="14.0513" y="3.95032" width="33.6743" height="40.1114" filterUnits="userSpaceOnUse" color-interpolation-filters="sRGB">
<feFlood flood-opacity="0" result="BackgroundImageFix"/>
<feGaussianBlur in="BackgroundImageFix" stdDeviation="0.5"/>
<feComposite in2="SourceAlpha" operator="in" result="effect1_backgroundBlur_924_12567"/>
<feBlend mode="normal" in="SourceGraphic" in2="effect1_backgroundBlur_924_12567" result="shape"/>
</filter>
<linearGradient id="paint0_linear_924_12567" x1="1.46629" y1="14.88" x2="34.3535" y2="32.1565" gradientUnits="userSpaceOnUse">
<stop stop-color="#1E8AF2"/>
<stop offset="1" stop-color="#05BED7"/>
</linearGradient>
<linearGradient id="paint1_linear_924_12567" x1="15.4208" y1="16.7648" x2="41.5051" y2="30.4419" gradientUnits="userSpaceOnUse">
<stop stop-color="#1E8AF2"/>
<stop offset="1" stop-color="#05BED7"/>
</linearGradient>
</defs>
</svg>
