<svg width="32" height="32" viewBox="0 0 32 32" fill="none" xmlns="http://www.w3.org/2000/svg">
<rect width="32" height="32" rx="16" fill="white" fill-opacity="0.12"/>
<rect x="0.5" y="0.5" width="31" height="31" rx="15.5" stroke="white" stroke-opacity="0.12"/>
<path d="M12.4448 15.9999C12.4448 16.9429 12.8194 17.8473 13.4862 18.514C14.153 19.1808 15.0574 19.5554 16.0004 19.5554C16.9434 19.5554 17.8477 19.1808 18.5145 18.514C19.1813 17.8473 19.5559 16.9429 19.5559 15.9999C19.5559 15.0569 19.1813 14.1525 18.5145 13.4857C17.8477 12.8189 16.9434 12.4443 16.0004 12.4443C15.0574 12.4443 14.153 12.8189 13.4862 13.4857C12.8194 14.1525 12.4448 15.0569 12.4448 15.9999Z" stroke="white" stroke-width="1.2" stroke-linecap="round" stroke-linejoin="round"/>
<path d="M8 16H8.88889M16 8V8.88889M23.1111 16H24M16 23.1111V24M10.3111 10.3111L10.9333 10.9333M21.6889 10.3111L21.0667 10.9333M21.0667 21.0667L21.6889 21.6889M10.9333 21.0667L10.3111 21.6889" stroke="white" stroke-width="1.2" stroke-linecap="round" stroke-linejoin="round"/>
</svg>
